<?xml version="1.0" encoding="UTF-8" standalone="no"?>
<!-- Created with Inkscape (http://www.inkscape.org/) -->

<svg
   xmlns:dc="http://purl.org/dc/elements/1.1/"
   xmlns:cc="http://creativecommons.org/ns#"
   xmlns:rdf="http://www.w3.org/1999/02/22-rdf-syntax-ns#"
   xmlns:svg="http://www.w3.org/2000/svg"
   xmlns="http://www.w3.org/2000/svg"
   xmlns:sodipodi="http://sodipodi.sourceforge.net/DTD/sodipodi-0.dtd"
   xmlns:inkscape="http://www.inkscape.org/namespaces/inkscape"
   width="450"
   height="450"
   viewBox="0 0 119.06251 119.06251"
   version="1.1"
   id="svg838"
   inkscape:version="0.92.5 (0.92.5+68)"
   sodipodi:docname="logo-cl.svg"
   inkscape:export-filename="/home/chaoliu/Documents/blog/source/images/apple-touch-icon-cl.png"
   inkscape:export-xdpi="38.400002"
   inkscape:export-ydpi="38.400002">
  <defs
     id="defs832" />
  <sodipodi:namedview
     id="base"
     pagecolor="#ffffff"
     bordercolor="#666666"
     borderopacity="1.0"
     inkscape:pageopacity="0.0"
     inkscape:pageshadow="2"
     inkscape:zoom="0.49497475"
     inkscape:cx="-213.84175"
     inkscape:cy="263.25398"
     inkscape:document-units="mm"
     inkscape:current-layer="layer1"
     showgrid="false"
     inkscape:window-width="1920"
     inkscape:window-height="1025"
     inkscape:window-x="0"
     inkscape:window-y="27"
     inkscape:window-maximized="1"
     units="px" />
  <metadata
     id="metadata835">
    <rdf:RDF>
      <cc:Work
         rdf:about="">
        <dc:format>image/svg+xml</dc:format>
        <dc:type
           rdf:resource="http://purl.org/dc/dcmitype/StillImage" />
        <dc:title></dc:title>
      </cc:Work>
    </rdf:RDF>
  </metadata>
  <g
     inkscape:label="Layer 1"
     inkscape:groupmode="layer"
     id="layer1"
     transform="translate(0,-177.93748)">
    <path
       id="path820-3"
       d="m 84.411092,248.82149 -0.171896,0.55001 -0.154693,0.56716 -0.189072,0.55001 -0.171896,0.55004 -0.206275,0.55002 -0.206274,0.55004 -0.223398,0.53286 -0.223478,0.53284 -0.257857,0.53283 -0.257857,0.49819 -0.292193,0.51564 -0.309399,0.48114 -0.326573,0.4812 -0.171895,0.22313 -0.171896,0.22313 -0.189072,0.22314 -0.189072,0.22339 -0.189072,0.22313 -0.206275,0.20628 c -2.664162,2.66413 -6.44555,3.16259 -10.037875,3.16259 -7.184646,0 -14.988063,-2.88761 -21.846128,-5.82675 0.790648,-0.49872 9.934745,-8.64562 9.934745,-11.55046 0,-5.22515 -4.778298,-11.99733 -6.411174,-17.11937 -0.51565,-1.54695 -0.859409,-3.00795 -0.859409,-4.70957 0,-6.68617 5.740839,-10.4504 11.65355,-10.4504 4.778309,0 9.075347,2.56107 9.075347,8.73163 0,3.52356 -0.584405,6.68614 -0.584405,7.87216 0,2.14849 2.200078,3.95325 3.403255,3.95325 l 10.295696,-2.57819 v -1.52938 c -2.664159,0 -5.75802,-0.27487 -5.75802,-2.66413 0,-1.46105 0.360943,-5.32834 0.360943,-7.54562 0,-8.14717 -5.397077,-9.83164 -10.639453,-9.83164 -9.401912,0 -18.133488,4.69242 -23.014926,13.26929 -0.859401,1.61568 -1.650063,3.50635 -1.650063,5.39707 0,7.51121 7.992494,15.05681 7.992494,20.62578 0,3.16256 -3.523582,6.1705 -6.77213,7.2018 h -2.663981 c -5.311134,0.85942 -7.631537,7.70029 -9.505035,12.23796 l 1.014094,1.2891 c 2.07977,-3.52361 4.623605,-7.20181 7.201833,-7.20181 1.873495,0 3.764199,0.60155 5.483009,1.37504 7.700298,3.33451 16.34593,6.84091 24.149344,6.84091 7.545587,0 11.653561,-2.14855 14.661477,-18.21948 z"
       inkscape:connector-curvature="0"
       style="font-style:normal;font-variant:normal;font-weight:normal;font-stretch:normal;letter-spacing:normal;word-spacing:normal;text-anchor:start;fill:#000000;fill-opacity:1;fill-rule:evenodd;stroke:#000000;stroke-width:0;stroke-linecap:butt;stroke-linejoin:miter;stroke-miterlimit:10.43299961;stroke-dasharray:none;stroke-dashoffset:0;stroke-opacity:1"
       inkscape:export-xdpi="3.4133334"
       inkscape:export-ydpi="3.4133334" />
    <rect
       style="font-style:normal;font-variant:normal;font-weight:normal;font-stretch:normal;letter-spacing:normal;word-spacing:normal;text-anchor:start;opacity:1;fill:none;fill-opacity:1;fill-rule:evenodd;stroke:none;stroke-width:0.59999996;stroke-linecap:butt;stroke-linejoin:miter;stroke-miterlimit:100;stroke-dasharray:none;stroke-dashoffset:0;stroke-opacity:1;paint-order:normal"
       id="rect836"
       width="119.0625"
       height="119.0625"
       x="0"
       y="177.93752"
       inkscape:export-xdpi="3.4133334"
       inkscape:export-ydpi="3.4133334" />
    <path
       sodipodi:type="star"
       style="opacity:1;fill:none;fill-opacity:1;stroke:#000000;stroke-width:6;stroke-linecap:butt;stroke-linejoin:miter;stroke-miterlimit:100;stroke-dasharray:none;stroke-dashoffset:0;stroke-opacity:1;paint-order:normal"
       id="path819"
       sodipodi:sides="6"
       sodipodi:cx="59.531273"
       sodipodi:cy="237.46863"
       sodipodi:r1="47.835377"
       sodipodi:r2="41.42664"
       sodipodi:arg1="1.0471976"
       sodipodi:arg2="1.5707963"
       inkscape:flatsided="true"
       inkscape:rounded="0.63"
       inkscape:randomized="0"
       d="m 83.448959,278.89528 c -26.098791,15.06814 -21.736587,15.06814 -47.835377,0 -26.0987892,-15.06815 -23.917687,-11.29037 -23.917686,-41.42665 2e-6,-30.13629 -2.1811006,-26.35851 23.917691,-41.42665 26.098791,-15.06815 21.736587,-15.06815 47.835376,0 26.098787,15.06814 23.917687,11.29036 23.917687,41.42665 0,30.13629 2.1811,26.35851 -23.917691,41.42665 z"
       inkscape:export-xdpi="3.4133334"
       inkscape:export-ydpi="3.4133334" />
  </g>
</svg>
